<?xml version="1.0" encoding="utf-8"?>
<!-- Generator: Adobe Illustrator 19.0.0, SVG Export Plug-In . SVG Version: 6.00 Build 0)  -->
<svg version="1.1" id="Layer_1" xmlns="http://www.w3.org/2000/svg" xmlns:xlink="http://www.w3.org/1999/xlink" x="0px" y="0px"
	 viewBox="-114 386.5 770.9 229.5" style="enable-background:new -114 386.5 770.9 229.5;" xml:space="preserve">
<style type="text/css">
	.st0{fill:#1E283A;}
	.st1{fill:#005082;}
</style>
<g>
	<path class="st0" d="M128.2,433c3.4,0,6.3,1.2,8.7,3.7s3.6,5.4,3.6,8.9c0,3.4-1.2,6.4-3.6,8.8c-2.4,2.4-5.3,3.6-8.6,3.6
		c-3.4,0-6.4-1.2-8.8-3.7c-2.4-2.5-3.6-5.5-3.6-9c0-3.4,1.2-6.3,3.6-8.7S124.8,433,128.2,433L128.2,433z M118.5,464.6h19.3v76.8
		h-19.3V464.6L118.5,464.6z M174.4,464.6v8.5c3.5-3.5,7.3-6.1,11.3-7.8c4-1.7,8.4-2.6,13-2.6c10,0,18.5,3.8,25.6,11.4
		c7,7.6,10.5,17.3,10.5,29.1c0,11.4-3.6,21-10.9,28.7c-7.3,7.7-15.8,11.5-25.7,11.5c-4.4,0-8.6-0.8-12.4-2.4s-7.6-4.1-11.4-7.7v36.2
		h-19.1V464.6H174.4L174.4,464.6z M194.7,480.5c-6.1,0-11.1,2.1-15.1,6.2c-4,4.1-6,9.5-6,16.2c0,6.8,2,12.4,6,16.5
		c4,4.2,9,6.3,15.1,6.3c5.9,0,10.8-2.1,14.9-6.4c4-4.3,6-9.7,6-16.4c0-6.6-2-12-5.9-16.2C205.7,482.5,200.7,480.5,194.7,480.5
		L194.7,480.5z M258.3,433c3.4,0,6.3,1.2,8.7,3.7c2.4,2.5,3.6,5.4,3.6,8.9c0,3.4-1.2,6.4-3.6,8.8s-5.3,3.6-8.6,3.6
		c-3.4,0-6.4-1.2-8.8-3.7s-3.6-5.5-3.6-9c0-3.4,1.2-6.3,3.6-8.7S254.9,433,258.3,433L258.3,433z M248.6,464.6h19.3v76.8h-19.3V464.6
		L248.6,464.6z M285.3,464.6h19.2v7.9c4.4-3.7,8.3-6.2,11.9-7.7c3.5-1.4,7.2-2.2,10.9-2.2c7.6,0,14.1,2.7,19.4,8
		c4.5,4.5,6.7,11.2,6.7,20v50.7h-19.1v-33.6c0-9.2-0.4-15.3-1.2-18.3c-0.8-3-2.3-5.3-4.3-6.9c-2-1.6-4.6-2.4-7.6-2.4
		c-3.9,0-7.3,1.3-10.1,3.9c-2.8,2.6-4.7,6.2-5.8,10.8c-0.6,2.4-0.8,7.6-0.8,15.6v30.8h-19.2V464.6L285.3,464.6z M362.9,464.6h6.9
		c0-10,0.2-16,0.5-17.8c0.5-4.2,2.3-7.6,5.3-10c3-2.5,7.3-3.7,12.9-3.7c4,0,8.5,0.9,13.5,2.7v14.7c-2.8-0.8-5-1.2-6.8-1.2
		c-2.2,0-3.9,0.5-4.9,1.4c-0.7,0.7-1.1,2.2-1.1,4.4l-0.1,9.6h12.2v16.4H389v60.4h-19.2V481h-6.9V464.6L362.9,464.6z M448.6,462.7
		c7.2,0,14.1,1.8,20.4,5.4c6.4,3.6,11.3,8.6,14.9,14.7c3.6,6.2,5.4,12.9,5.4,20.1c0,7.3-1.8,14-5.4,20.3
		c-3.6,6.3-8.5,11.2-14.7,14.8c-6.2,3.5-13.1,5.3-20.5,5.3c-11,0-20.4-3.9-28.2-11.8s-11.7-17.3-11.7-28.5c0-12,4.4-22,13.2-30
		C429.7,466.1,438.6,462.7,448.6,462.7L448.6,462.7z M448.9,480.8c-6,0-11,2.1-14.9,6.3c-4,4.2-5.9,9.5-5.9,16
		c0,6.7,2,12.1,5.9,16.2c3.9,4.1,8.9,6.2,14.9,6.2s11-2.1,15-6.3s6-9.6,6-16.2s-2-11.9-5.9-16C460,482.9,455,480.8,448.9,480.8
		L448.9,480.8z M515.6,521.3c3.1,0,5.7,1.1,7.8,3.2c2.2,2.1,3.3,4.7,3.3,7.8c0,3.1-1.1,5.7-3.3,7.8c-2.2,2.2-4.8,3.3-7.8,3.3
		c-3.1,0-5.7-1.1-7.8-3.3c-2.2-2.2-3.3-4.8-3.3-7.8c0-3.1,1.1-5.7,3.3-7.8C509.9,522.4,512.5,521.3,515.6,521.3L515.6,521.3z
		 M553,433c3.4,0,6.3,1.2,8.7,3.7s3.6,5.4,3.6,8.9c0,3.4-1.2,6.4-3.6,8.8c-2.4,2.4-5.3,3.6-8.6,3.6c-3.4,0-6.4-1.2-8.8-3.7
		c-2.4-2.5-3.6-5.5-3.6-9c0-3.4,1.2-6.3,3.6-8.7C546.8,434.2,549.6,433,553,433L553,433z M543.4,464.6h19.3v76.8h-19.3V464.6
		L543.4,464.6z M616.2,462.7c7.3,0,14.1,1.8,20.4,5.4c6.4,3.6,11.3,8.6,14.9,14.7c3.6,6.2,5.4,12.9,5.4,20.1c0,7.3-1.8,14-5.4,20.3
		c-3.6,6.3-8.5,11.2-14.7,14.8c-6.2,3.5-13.1,5.3-20.5,5.3c-11,0-20.4-3.9-28.2-11.8c-7.8-7.8-11.7-17.3-11.7-28.5
		c0-12,4.4-22,13.2-30C597.3,466.1,606.2,462.7,616.2,462.7L616.2,462.7z M616.5,480.8c-6,0-11,2.1-14.9,6.3c-4,4.2-5.9,9.5-5.9,16
		c0,6.7,2,12.1,5.9,16.2c3.9,4.1,8.9,6.2,14.9,6.2s11-2.1,15-6.3s6-9.6,6-16.2s-2-11.9-5.9-16C627.6,482.9,622.6,480.8,616.5,480.8
		L616.5,480.8z"/>
	<path class="st1" d="M-12.2,559.5l15,17.4l17.4-15l17-14.7c38.1-32.9,42.2-91,9.3-129.1c-32.9-38.1-91-42.2-129.1-9.3
		s-42.2,91-9.3,129.1l60.1,69.4c5.4,6.2,11,12.9,19.7,5.8l0.3-0.2l0.3-0.2c8.3-7.6,2.5-14.2-2.9-20.4l-3.7-4.3l-56.3-65.1
		c-24.6-28.5-21.5-72,7-96.6s72-21.5,96.6,7s21.5,72-7,96.6l-17,14.7l-15-17.4l-15-17.4l-14.7-17c-8-9.3-7-23.7,2.3-31.8
		c9.3-8,23.7-7,31.8,2.3c6.9,7.9,7.1,19.7,1.2,27.9c-0.1,0.2-0.3,0.4-0.4,0.6c-3,4.3-2.8,10.3,0.8,14.5c7.6,8.7,15.9,2.7,20.3-4.7
		c9.9-16.4,8.7-38.2-4.5-53.4c-16.3-18.9-45.3-21-64.2-4.6c-18.9,16.3-21,45.3-4.6,64.2l14.7,17l15,17.4L-12.2,559.5L-12.2,559.5z"
		/>
</g>
</svg>
