<svg id="95b83779-b6d7-4a6f-8fd6-60417244e2d9" data-name="Слой 1" xmlns="http://www.w3.org/2000/svg" viewBox="0 0 333.61 96.4"><defs><style>.\39 02395a0-8277-43dc-91fd-0b4dcc79570c{fill:#d7712c;}.\32 9d6abe9-3ee3-4604-b1a3-0a06d39e6814,.\39 02395a0-8277-43dc-91fd-0b4dcc79570c,.be9223cd-e991-4841-92e2-abaa0d53faa8,.ff8e3e01-a405-43d1-ae05-36f39b08f7b4{fill-rule:evenodd;opacity:0.62;}.\32 9d6abe9-3ee3-4604-b1a3-0a06d39e6814{fill:#d04a2b;}.ff8e3e01-a405-43d1-ae05-36f39b08f7b4{fill:#79b652;}.be9223cd-e991-4841-92e2-abaa0d53faa8{fill:#00acec;}.a7a248f3-48ef-40dc-9379-8cc982d85d15{fill:#219fa5;}</style></defs><title>Artboard 1</title><path class="902395a0-8277-43dc-91fd-0b4dcc79570c" d="M320.65 8.37a30.43 30.43 0 1 0-26 52.07 2 2 0 0 1 1.7 2l.06 12.21a1.35 1.35 0 0 0 2.34.92l16.47-17.49c5-5.33 10.07-9.6 12.79-16.54a30.44 30.44 0 0 0-7.36-33.17z"/><path class="29d6abe9-3ee3-4604-b1a3-0a06d39e6814" d="M324.14 11.09a30.43 30.43 0 1 0-26 52.07 2 2 0 0 1 1.7 2l.06 12.21a1.35 1.35 0 0 0 2.34.92l16.5-17.49c5-5.33 10.07-9.6 12.79-16.54a30.44 30.44 0 0 0-7.39-33.17z"/><path class="ff8e3e01-a405-43d1-ae05-36f39b08f7b4" d="M319.33 12.09a30.43 30.43 0 1 0-26 52.07 2 2 0 0 1 1.7 2l.06 12.21a1.35 1.35 0 0 0 2.34.92l16.5-17.49c5-5.33 10.07-9.6 12.78-16.54a30.44 30.44 0 0 0-7.38-33.17z"/><path class="be9223cd-e991-4841-92e2-abaa0d53faa8" d="M320.66 11.68a28.06 28.06 0 1 0-23.95 48 1.86 1.86 0 0 1 1.56 1.84l.06 11.26a1.25 1.25 0 0 0 2.16.85l15.19-16.13c4.63-4.91 9.28-8.85 11.79-15.25a28.07 28.07 0 0 0-6.81-30.57z"/><path class="a7a248f3-48ef-40dc-9379-8cc982d85d15" d="M34.23 52.83c-.39.62-.7.94-1.09.94-.78 0-3.43-2.65-7.49-2.65-7.25 0-9.51 9-9.51 14.42 0 2.89 1.33 4.37 4 4.37 2.89 0 6.63-2.11 8-2.11.39 0 .62.23.78.7l2.65 8.19a6.94 6.94 0 0 1 .16.86c0 1.79-9.12 3.9-12.55 3.9-10.53 0-16.76-6.09-16.76-15.75 0-12.94 7.72-25.42 23.31-25.42 6 0 12.63 2.81 12.63 4.44a3.71 3.71 0 0 1-.31.94zM94 55.64l-5.43 23.62c-.23.86-.31.86-1.17.86h-12c-.7 0-1-.23-1-.7a5.39 5.39 0 0 1 .16-1l5.22-22.92a9.68 9.68 0 0 0 .39-2.42c0-1.17-.47-1.79-2-1.79-2.18 0-4.52 3-6.32 11.46L68.3 79.26c-.08.55-.47.86-1.17.86H55.59c-.7 0-1-.23-1-.7a5.35 5.35 0 0 1 .16-1L60 55.48a10 10 0 0 0 .47-2.57c0-.94-.39-1.64-1.72-1.64-2.11 0-4.91 3.35-6.71 11.46L48.5 79.26c-.08.55-.47.86-1.17.86h-12c-.7 0-1-.23-1-.78 0-.08.08-.39.16-.94l5.46-24.09a35.64 35.64 0 0 0 .78-5.69c0-1.48-.47-2.88-.47-4.37a1 1 0 0 1 .7-1l10.14-2.57c.39-.08.7-.16.78-.16.86 0 2 3.66 2 5.85 2.73-3.12 6.63-6.08 11.07-6.08 4 0 6.63 1.4 7.8 6.08 3.2-3.66 6.63-6.08 12.24-6.08 6.32 0 9.59 4 9.59 9.59a22.11 22.11 0 0 1-.58 5.76zM124.75 52.36a1 1 0 0 1-1 .78c-.86 0-5.61-2.26-8.73-2.26-1.64 0-3.2.31-3.2 1.87 0 4.29 13.8 2.42 13.8 14.11 0 9-6.71 14.58-17.08 14.58-7.8 0-15.52-3.67-15.52-4.6a2.84 2.84 0 0 1 .23-.86l3.2-7.8c.16-.39.39-.62.7-.62a3.22 3.22 0 0 1 1.17.31c1.56.47 5.77 3 9.82 3 3 0 3.9-.78 3.9-2.26 0-3.82-13.8-2.65-13.8-13.8 0-8.81 6.71-14.5 16.61-14.5 6.24 0 12.71 2.57 12.71 4.44a2.61 2.61 0 0 1-.31 1.09zM159.36 52.83c-.39.62-.7.94-1.09.94-.78 0-3.43-2.65-7.49-2.65-7.25 0-9.51 9-9.51 14.42 0 2.89 1.33 4.37 4 4.37 2.89 0 6.63-2.11 8-2.11.39 0 .62.23.78.7l2.65 8.19a6.88 6.88 0 0 1 .16.86c0 1.79-9.12 3.9-12.55 3.9-10.53 0-16.76-6.08-16.76-15.75 0-12.94 7.72-25.42 23.31-25.42 6 0 12.63 2.81 12.63 4.44a3.74 3.74 0 0 1-.31.94z"/><path class="a7a248f3-48ef-40dc-9379-8cc982d85d15" d="M195.07 67.72a23.54 23.54 0 0 0-.62 5.46c0 1.79.94 3.74.94 5.22a.68.68 0 0 1-.62.7l-9.51 2c-.55.08-1.4.31-1.72.31-.86 0-1.95-2.57-2.18-5-2.88 2.88-6.78 5-10.6 5-7.8 0-11.23-5.77-11.23-13.65 0-14 8-27.52 20.27-27.52a11.22 11.22 0 0 1 8.34 3l.31-.86a1.17 1.17 0 0 1 1.17-.78h10c.55 0 .86.16.86.55 0 .08-.08.31-.16.7zm-10.44-17.23a4.56 4.56 0 0 0-3.28-1.25c-1.95 0-3.2 1.09-4.44 3-1.64 2.5-4.21 10.06-4.21 16.3 0 1.79.55 3 2.42 3 4 0 6.08-5.38 7.33-11z"/><path class="a7a248f3-48ef-40dc-9379-8cc982d85d15" d="M233.12 36a.92.92 0 0 1-.94.7c-1.33 0-3.2-1.17-5.15-1.17-3.51 0-3.74 4.52-4 6.08h8.27c.55 0 .86.16.86.47a1.52 1.52 0 0 1-.08.62l-2.18 8.81c-.23.86-.47.86-1.09.86h-8l-5.15 27.45c-1.64 9.28-6.32 16.3-17.15 16.3-3.51 0-9.12-.78-9.12-2.42 0-.08.08-.31.16-.7l2.65-8.73c.08-.39.31-.55.55-.55.62 0 2.73.94 4.29.94 2.42 0 3.51-.62 4.76-6.86l5-25.42h-4.91c-.7 0-1-.16-1-.47a2.15 2.15 0 0 1 .08-.7l1.71-8.65c.23-.86.23-.94 1.09-.94h5.3c1.64-8.65 3.28-17.54 16.45-17.54 4.13 0 10.21 1.25 10.21 3.35 0 .08-.08.23-.08.31z"/><path class="a7a248f3-48ef-40dc-9379-8cc982d85d15" d="M240.06 66.08v.78c0 3 1.64 3.9 4.44 3.9 5.07 0 9.36-3.27 11.31-3.27a1.05 1.05 0 0 1 .94.7l3.12 7a3.94 3.94 0 0 1 .16.7c0 .62-.47.94-1.09 1.33-4.68 3-10.92 4.21-16.3 4.21-10.37 0-16.14-5.61-16.14-15.2 0-14.11 9.59-26 23.78-26 8.34 0 14 4.21 14 11.38-.05 11.59-14.01 14.24-24.22 14.47zm9.12-16.84c-5.3 0-7.17 3.51-8.66 8.27 7.88 0 11.23-1.72 11.23-5.54a2.46 2.46 0 0 0-2.57-2.73z"/></svg>