<svg xmlns="http://www.w3.org/2000/svg" id="Layer_1" viewBox="-247 370.9 100 100"><style>.st0{fill:#0077C0;}</style><path d="M-177.3 392.6c-4.6-2.9-9-4-13.3-6.9-2.7-1.8-6.4-6.2-9.6-9.9-.6 6-2.4 8.4-4.5 10.2-4.4 3.5-7.2 4.5-11 6.6-3.2 1.6-20.7 12-20.7 34.4s18.9 38.8 39.8 38.8c21 0 39.2-15.2 39.2-38.1-.1-22.9-17.2-33.3-19.9-35.1m.3 64.5c-.4.4-4.4 3.2-9.1 3.6-4.7.4-11.1.7-14.9-2.8-.6-.6-.4-1.5 0-1.8.4-.4.8-.6 1.3-.6s.4 0 .7.2c1.7 1.4 4.3 2.5 9.9 2.5 5.6 0 9.5-1.6 11.2-2.9.8-.6 1.1-.1 1.2.3.2.4.3.9-.3 1.5m-15.1-7.3c1-.9 2.5-2.3 4-2.9 1.5-.6 2.3-.5 3.7-.5 1.4 0 2.9.1 3.9.8 1 .7 1.7 2.3 2 3.1.4.9 0 1.4-.7 1.7-.6.3-.7.2-1.3-1-.6-1.1-1.1-2.3-4.2-2.3-3 0-4 1-5.5 2.3-1.5 1.2-2 1.6-2.5 1-.5-.6-.3-1.3.6-2.2m31.4-16.5c0 2.7-.9 7.5-3 10.6-2.1 3-3.4 4.2-5.8 4-3.1-.3-9.4-10-13.4-10.1-5-.2-16 10.5-24.6 10.5-5.2 0-6.8-.8-8.5-1.9-2.6-1.8-3.9-4.6-3.8-8.4.1-6.8 6.4-13.1 14.4-13.2 10.2-.1 17.2 10 22.4 10 4.4-.1 12.7-8.6 16.8-8.6 4.3-.1 5.5 4.4 5.5 7.1" class="st0"/></svg>