<svg id="Слой_1" xmlns="http://www.w3.org/2000/svg" viewBox="0 0 164.3 164.3"><style>.st0{fill:#844BA1;}</style><path class="st0" d="M126.6 95.6c-8.6-5.7-13.5-10.4-17.7-19-2.9 5.9-9.7 14.6-21.2 21.5-5.7 17.8-33 52-41.8 47.1-2.6-1.4-3.1-3.3-2.5-5.3.6-4.9 10.7-16.1 10.7-16.1s.2 2.4 3.4 7.3c-4.3-13.2 7-29.6 10-35.1 4.7-1.5 5-7.5 5-7.5.3-9.3-3.9-16.1-7.9-20.1 2.9 3.5 3.8 8.9 4 13.8v1.6c-.1 4.1-1.4 9.7-4 9.7-2.7-.1-6 .5-9 1.4L49 96.5s3.5-.2 5.4 1.5c-2.1 3.4-6.8 7.7-12.1 10.1-7.6 3.5-9.8-3.5-5.9-8.1 1-1.1 1.9-2.1 2.8-2.8-.6-.6-1-1.4-1.1-2.4-.5-2.3-.2-5.4 3.1-10.2.7-1 1.4-2.1 2.4-3.1l.1-.1.1-.1s0-.1.1-.1c.2-.3.5-.5.8-.8 3.9-4 10.2-8.2 20-12 11.4-16.8 15.6-19.9 15.6-19.9 1.3-1.3 3.5-2.9 4.3-3.3-6-10.4-7.2-25-5.6-28.9-.1.2-.2.4-.3.7.6-1.4 1-1.8 1.6-2.5 1.6-1.9 7.2-2.9 9.1 1.1 1.1 2.2 1.3 5 1.2 7.1-4.4-.2-8.3 4.8-8.3 4.8s3.6-1.7 8.1-1.7c0 0 1.2 1 2.7 3-2 3.8-5.3 11.8-2.9 20.3.4 1.7 1 3.1 1.8 4.3 0 .1.1.1.1.2l.2.2c4 6 11.3 6.7 11.3 6.7-3.4-1.7-6.2-4.4-8.1-7.7-.9-1.8-1.5-3.3-1.9-4.4-1.9-7.5.9-11.8 2.5-14.7 3.7-5.8 10.6-9.3 17.9-8.5 10.3 1.2 17.7 10.5 16.5 20.8-.7 6.3-4.5 11.5-9.6 14.3 1.2 3.4-.1 7.4-.1 7.4 3.1 3.9 3.3 6.2 3.2 8.3-4-.7-7.8 2-7.8 2s7.6-1.8 12.1 2.1c2.9 3.1 4.8 5.9 6 8 1.6 3 9.3 3.2 8.4 8.5-1.1 5-7 5.1-16.1-1M82.2 0C36.8 0 0 36.8 0 82.2c0 45.4 36.8 82.2 82.2 82.2 45.4 0 82.2-36.8 82.2-82.2C164.3 36.8 127.5 0 82.2 0"/><path class="st0" d="M87.2 61.1c1-1 1-2.5 0-3.5s-2.5-1-3.5 0-1 2.5 0 3.5c.9.9 2.5.9 3.5 0m-8.7 1.7c-1 1-1 2.5 0 3.5s2.5 1 3.5 0 1-2.5 0-3.5-2.6-1-3.5 0m15.1 1.3c-1.5-1.5-3.9-1.5-5.4 0L85 67.3c-1.5 1.5-1.5 3.9 0 5.4l3.5 3.5c1.5 1.5 3.9 1.5 5.4 0l3.2-3.2c1.5-1.5 1.5-3.9 0-5.4l-3.5-3.5zM113.1 49c-2.5-3 2.2-8.6 5.2-5.3 5.5 6.1-2.7 8.3-5.2 5.3m10.9 3.1c4.1-7.7-1.7-12.3-5.6-16-6.3-6-12.6-8.5-19.9-.3-7.2 8.2-2.6 17.8 4 22.5 6.6 4.8 17.5 1.6 21.5-6.2"/></svg>