<svg id="Layer_1" xmlns="http://www.w3.org/2000/svg" viewBox="-265 388.9 64 64"><style>.st0{fill:#7ABF51;} .st1{fill:#F7A34F;} .st2{fill:#F2462F;} .st3{fill:#528FC8;}</style><path class="st0" d="M-258.3 405.8c-1.4 4.8-.3 10.3 3.6 14.1l1.2 1.2 6.3 6.3 6.7 6.7 6.3-6.3-6.7-6.7-6.3-6.3-1.2-1.2c-2-2-2-5.4 0-7.4 2.1-2.1 5.4-2.1 7.4 0l.5.5 6.3-6.3-.5-.5c-3.6-3.6-8.7-4.9-13.3-3.8-.7-4.1-4.2-7.2-8.4-7.2-4.7 0-8.6 3.8-8.6 8.6.1 4 2.9 7.5 6.7 8.3z"/><path class="st1" d="M-239.7 407.4l6.3-6.3 1.2-1.2c3.8-3.8 9.2-5 14-3.6.6-4.2 4.2-7.4 8.5-7.4 4.7 0 8.6 3.8 8.6 8.6 0 4.4-3.2 7.9-7.4 8.5 1.4 4.8.2 10.2-3.6 14l-.5.5-6.3-6.3.5-.5c2.1-2.1 2.1-5.4 0-7.4-2-2-5.4-2-7.4 0l-1.2 1.2-6.3 6.3-6.7 6.7-6.3-6.3 6.6-6.8z"/><path class="st2" d="M-201 444.3c0 4.7-3.8 8.6-8.6 8.6-4.1 0-7.6-2.9-8.4-6.9-4.9 1.5-10.4.3-14.2-3.5l-.5-.5 6.3-6.3.5.5c2.1 2.1 5.4 2.1 7.4 0 2-2 2.1-5.4 0-7.4l-1.2-1.2-6.3-6.3-6.7-6.7 6.3-6.3 6.7 6.7 6.3 6.3 1.2 1.2c3.6 3.6 4.9 8.8 3.8 13.4 4.2.5 7.4 4.1 7.4 8.4z"/><path class="st3" d="M-227.1 434.9l-6.3 6.3-1.2 1.2c-3.6 3.7-8.8 4.9-13.5 3.7-.9 3.8-4.3 6.6-8.3 6.6-4.7 0-8.6-3.8-8.6-8.6 0-4.1 2.8-7.5 6.6-8.3-1.2-4.7 0-9.9 3.7-13.6l.5-.5 6.3 6.3-.5.5c-2.1 2.1-2.1 5.4 0 7.4 2.1 2.1 5.4 2.1 7.4 0l1.2-1.2 6.3-6.3 6.7-6.7 6.3 6.3-6.6 6.9z"/></svg>