<svg height="56.693" viewBox="0 0 56.693 56.693" width="56.693" xmlns="http://www.w3.org/2000/svg"><path d="M3.59 29.355c0 9.742 5.663 18.17 13.878 22.156L5.723 19.334c-1.368 3.064-2.133 6.45-2.133 10.023zm41.246-1.244c0-3.04-1.096-5.15-2.03-6.79-1.25-2.03-2.417-3.744-2.417-5.775 0-2.264 1.71-4.37 4.133-4.37.105 0 .21.015.316.022C40.46 7.183 34.624 4.73 28.214 4.73c-8.605 0-16.172 4.416-20.573 11.1.58.018 1.12.03 1.583.03 2.577 0 6.563-.315 6.563-.315 1.324-.074 1.48 1.87.154 2.03 0 0-1.332.155-2.817.235l8.968 26.668 5.39-16.158-3.84-10.51c-1.325-.08-2.58-.234-2.58-.234-1.33-.08-1.17-2.105.157-2.03 0 0 4.064.315 6.482.315 2.574 0 6.566-.314 6.566-.314 1.322-.074 1.48 1.87.152 2.03 0 0-1.33.155-2.816.235l8.9 26.466 2.457-8.203c1.25-3.2 1.877-5.85 1.877-7.96zm-16.19 3.4l-7.39 21.47c2.206.648 4.536 1 6.958 1 2.865 0 5.617-.496 8.176-1.4-.066-.103-.127-.213-.176-.334L28.646 31.51zm21.172-13.97c.11.787.17 1.627.17 2.535 0 2.497-.47 5.305-1.875 8.82l-7.52 21.74c7.318-4.265 12.24-12.194 12.24-21.278 0-4.284-1.093-8.307-3.015-11.817z"/></svg>