<?xml version="1.0" encoding="utf-8"?>
<!-- Generator: Adobe Illustrator 21.0.0, SVG Export Plug-In . SVG Version: 6.00 Build 0)  -->
<svg version="1.1" id="Layer_1" xmlns="http://www.w3.org/2000/svg" xmlns:xlink="http://www.w3.org/1999/xlink" x="0px" y="0px"
	 viewBox="0 0 100 100" style="enable-background:new 0 0 100 100;" xml:space="preserve">
<style type="text/css">
	.st0{fill:#E6E6E6;}
	.st1{clip-path:url(#SVGID_2_);}
	.st2{fill:#6D4829;}
	.st3{fill:#40C5AF;}
	.st4{fill:#E1BC8F;}
	.st5{fill:#C49970;}
	.st6{fill:none;stroke:#FFFFFF;stroke-width:0.53;stroke-linecap:round;stroke-linejoin:round;}
	.st7{fill:#FFFFFF;}
	.st8{fill:#333333;}
	.st9{fill:none;stroke:#FFFFFF;stroke-width:0.84;stroke-miterlimit:10;}
</style>
<g>
	<circle class="st0" cx="50" cy="50" r="50"/>
	<g>
		<g>
			<defs>
				<circle id="SVGID_1_" cx="50" cy="50" r="50"/>
			</defs>
			<clipPath id="SVGID_2_">
				<use xlink:href="#SVGID_1_"  style="overflow:visible;"/>
			</clipPath>
			<g class="st1">
				<polygon class="st2" points="74.4,88.7 25.6,88.7 25.6,59.5 74.4,59.5 				"/>
				<path class="st3" d="M19.1,79.9h62c12.5,0,22.6,11.1,22.6,24.3v20.1H81.1v73.3h-62v-73.5H-3.6V104C-3.6,91.1,6.6,79.9,19.1,79.9
					L19.1,79.9z"/>
				<polygon class="st4" points="49.7,87.7 39.5,81.9 39.5,53.3 60.3,53.3 60.3,81.9 				"/>
				<path class="st5" d="M79.9,40.5c0,1.6-1.2,3-2.9,3.2H23.3c-1.6-0.1-2.9-1.5-2.8-3.2v-6.3c0-1.5,1.2-2.8,2.7-2.8h0.1h53.6
					c1.5,0,2.8,1.2,2.8,2.7v0.1l0,0v6.3H79.9z"/>
				<polygon class="st6" points="49.9,87.7 39.7,81.9 39.7,53.3 60.5,53.3 60.5,81.9 				"/>
				<path class="st5" d="M39.7,70.1c3.3,0.9,6.8,1.3,10.2,1.2c3.6,0,7.1-0.4,10.6-1.2V53.3H39.7V70.1z"/>
				<path class="st4" d="M25.8,21.3v38.2c7,5.1,15.4,7.9,24.1,8.1c8.8-0.2,17.4-3,24.7-8.1V21.3H25.8z"/>
				<path class="st2" d="M60.3,0.3c-3-1.6-6.4-2.3-9.9-2.3C37-2.1,25.9,8.7,25.8,22.1l0,0v12.3C43.8,32.7,58,18.4,60.3,0.3z"/>
				<path class="st2" d="M40,0.3C43.2-1.3,46.7-2,50.3-2C63.7-2,74.5,8.9,74.6,22.3l0,0v12.2C56.5,32.4,42.2,18.3,40,0.3z"/>
				<path class="st7" d="M39.7,53.3c4.4,5.7,12.7,6.8,18.4,2.4c0.9-0.7,1.7-1.5,2.4-2.4H39.7z"/>
				<path class="st5" d="M46.7,47.2c0.9,1,2.2,1.6,3.5,1.6s2.4-0.6,3.2-1.6H46.7z"/>
				<path class="st8" d="M40.8,37.3c0,0.9-0.7,1.6-1.6,1.6c-0.1,0-0.3,0-0.4,0l0,0c-0.9,0.1-1.6-0.6-1.7-1.5
					c-0.1-0.9,0.6-1.6,1.5-1.7c0.1,0,0.2,0,0.3,0C39.8,35.6,40.6,36.3,40.8,37.3C40.7,37.3,40.7,37.3,40.8,37.3L40.8,37.3z"/>
				<path class="st8" d="M63.5,37.3c0,0.9-0.7,1.6-1.6,1.6c-0.1,0-0.3,0-0.4,0l0,0c-0.9-0.1-1.5-0.8-1.5-1.7
					c0.1-0.8,0.7-1.4,1.5-1.5C62.5,35.6,63.4,36.3,63.5,37.3L63.5,37.3L63.5,37.3z"/>
				<line class="st9" x1="44.8" y1="121" x2="40.8" y2="82.4"/>
				<line class="st9" x1="55.5" y1="120.8" x2="59.4" y2="82.4"/>
			</g>
		</g>
	</g>
</g>
</svg>
