<svg id="Layer_1" data-name="Layer 1" xmlns="http://www.w3.org/2000/svg" width="81.6mm" height="24.16mm" viewBox="0 0 231.31 68.47">
  <defs>
    <style>
      .cls-1 {
        fill: #5066ab;
      }

      .cls-2 {
        fill: #fbb542;
      }
    </style>
  </defs>
  <title>1cloud-logo</title>
  <g>
    <path class="cls-1" d="M79.07,109.14H78.59l-0.15-.46A22.11,22.11,0,0,0,38.56,104l-0.22.37H37.91a23.06,23.06,0,0,0-2.32-.11,23.9,23.9,0,0,0-3.35,47.54,6,6,0,0,0,.88.06h11.8l3.67-5.55H33a18.35,18.35,0,0,1,2.57-36.5,18.11,18.11,0,0,1,6,1A16.55,16.55,0,0,1,74,115.26a15.51,15.51,0,0,1,4.2-.58,15.78,15.78,0,0,1,0,31.56H65.46l-3.66,5.55H78.17A21.33,21.33,0,0,0,79.07,109.14Z" transform="translate(-11.85 -93.42)"/>
    <path class="cls-2" d="M61.6,136.32H49.51l11.85-17.95a2.45,2.45,0,0,0,.22-2.57A3.18,3.18,0,0,0,59,114.1H58.84a2.45,2.45,0,0,0-2.11,1.22L42,137.55a2.72,2.72,0,0,0-.06,2.82,2.69,2.69,0,0,0,2.36,1.48H56.38L46,157.62a2.45,2.45,0,0,0-.23,2.57,3.18,3.18,0,0,0,2.58,1.7,2.45,2.45,0,0,0,2.27-1.21l13.28-20a3.11,3.11,0,0,0,.4-1.28h0a2.78,2.78,0,0,0-.74-2.11A2.69,2.69,0,0,0,61.6,136.32Z" transform="translate(-11.85 -93.42)"/>
  </g>
  <g>
    <path class="cls-1" d="M122.23,110.53a6.5,6.5,0,0,1,2.5-.36,6.82,6.82,0,0,1,2.5.36v34a6.65,6.65,0,0,1-2.55.36,8.23,8.23,0,0,1-2.61-.36V123.61c0-2.71.1-5,.26-6.64a18.59,18.59,0,0,1-8.63,4.65,4.71,4.71,0,0,1-1.23-4.24A16.18,16.18,0,0,0,122.23,110.53Z" transform="translate(-11.85 -93.42)"/>
    <path class="cls-1" d="M138.89,131.48c0,6.69,2.15,9.6,7,9.6a13.14,13.14,0,0,0,4.8-.87,5.38,5.38,0,0,1,1.48,3.68s-2.25,1.53-7.36,1.53c-7.46,0-11.24-4.85-11.24-13.95s3.78-13.95,11.24-13.95c4.9,0,6.85,1.28,6.85,1.28a5.21,5.21,0,0,1-1.48,3.68,12.42,12.42,0,0,0-4.5-.77C140.83,121.72,138.89,124.84,138.89,131.48Z" transform="translate(-11.85 -93.42)"/>
    <path class="cls-1" d="M161.88,144.56a7.33,7.33,0,0,1-2.55.36,6.66,6.66,0,0,1-2.55-.36V107a6.65,6.65,0,0,1,2.55-.36,7.32,7.32,0,0,1,2.55.36v37.56Z" transform="translate(-11.85 -93.42)"/>
    <path class="cls-1" d="M178.64,117.53c7,0,11.34,3.83,11.34,13.95s-4.34,13.95-11.34,13.95-11.34-3.83-11.34-13.95S171.64,117.53,178.64,117.53Zm0,3.93c-3.73,0-6.13,2.14-6.13,10s2.4,10,6.13,10,6.08-2.15,6.08-10-2.36-10-6.08-10h0Z" transform="translate(-11.85 -93.42)"/>
    <path class="cls-1" d="M195,118.4a7.32,7.32,0,0,1,2.55-.36,7,7,0,0,1,2.55.36v18.39c0,2.86,1.48,4.5,4.75,4.5a6.93,6.93,0,0,0,5.77-3.27V118.4a7.68,7.68,0,0,1,2.55-.36,6.64,6.64,0,0,1,2.55.36v26.16a6.65,6.65,0,0,1-2.55.36,7.69,7.69,0,0,1-2.55-.36v-2.35a10,10,0,0,1-7.71,3.22c-5.11,0-7.92-3.12-7.92-7.71V118.4h0Z" transform="translate(-11.85 -93.42)"/>
    <path class="cls-1" d="M240.66,106.6a6.82,6.82,0,0,1,2.5.36v37.6a6.15,6.15,0,0,1-2.15.36,7.72,7.72,0,0,1-2.3-.36l-0.36-2.76c-1.48,2.25-3.83,3.63-7.66,3.63-5.82,0-9.6-3.53-9.6-13.95s3.78-13.95,9.6-13.95c3.58,0,5.88,1.23,7.36,3.32V107A7.47,7.47,0,0,1,240.66,106.6Zm-8.17,15.12c-4.09,0-6.13,2.15-6.13,9.76s2,9.76,6.13,9.76c3.58,0,5.57-3,5.57-6.54v-6.59C238,124.68,236,121.72,232.49,121.72Z" transform="translate(-11.85 -93.42)"/>
  </g>
</svg>
