<?xml version="1.0" encoding="UTF-8" standalone="no"?>
<svg width="87px" height="17px" viewBox="0 0 87 17" version="1.1" xmlns="http://www.w3.org/2000/svg" xmlns:xlink="http://www.w3.org/1999/xlink" xmlns:sketch="http://www.bohemiancoding.com/sketch/ns">
    <!-- Generator: Sketch 3.4.4 (17249) - http://www.bohemiancoding.com/sketch -->
    <title>logo</title>
    <desc>Created with Sketch.</desc>
    <defs></defs>
    <g id="Page-1" stroke="none" stroke-width="1" fill="none" fill-rule="evenodd" sketch:type="MSPage">
        <g id="Mobile-Portrait" sketch:type="MSArtboardGroup" transform="translate(-257.000000, -558.000000)">
            <g id="pluso" sketch:type="MSLayerGroup" transform="translate(178.000000, 558.000000)">
                <g id="logo" transform="translate(79.000000, 0.000000)" sketch:type="MSShapeGroup">
                    <rect id="Rectangle-2" fill="#E86340" x="0" y="0" width="16.8387097" height="17" rx="27.2999979"></rect>
                    <path d="M9.23790323,9.32638889 L9.23790323,11.8055556 C9.23790323,12.2617222 8.87119355,12.6319444 8.41935484,12.6319444 C7.96751613,12.6319444 7.60080645,12.2617222 7.60080645,11.8055556 L7.60080645,9.32638889 L5.14516129,9.32638889 C4.69332258,9.32638889 4.3266129,8.95616667 4.3266129,8.5 C4.3266129,8.04383333 4.69332258,7.67361111 5.14516129,7.67361111 L7.60080645,7.67361111 L7.60080645,5.19444444 C7.60080645,4.73827778 7.96751613,4.36805556 8.41935484,4.36805556 C8.87119355,4.36805556 9.23790323,4.73827778 9.23790323,5.19444444 L9.23790323,7.67361111 L11.6935484,7.67361111 C12.1453871,7.67361111 12.5120968,8.04383333 12.5120968,8.5 C12.5120968,8.95616667 12.1453871,9.32638889 11.6935484,9.32638889 L9.23790323,9.32638889 Z" id="Shape" fill="#FFFFFF"></path>
                    <path d="M28.9278381,0.137644942 L24.8419849,0.137644942 C24.191231,0.137644942 23.8548387,0.504698121 23.8548387,1.23880448 L23.8548387,15.9668133 C23.8548387,16.2421032 23.943809,16.4944522 24.1471696,16.7009196 C24.3488355,16.9065374 24.5733795,17 24.8419849,17 C25.5384949,17 25.8748872,16.6779788 25.8748872,16.0126949 L25.8748872,10.6453918 L29.1972909,10.6453918 C30.6114943,10.6453918 31.8011537,10.1398441 32.7671165,9.107507 C33.732232,8.07516993 34.2262288,6.81342463 34.2262288,5.36815274 C34.2262288,3.78523591 33.732232,2.50054978 32.7450858,1.55997601 C31.756245,0.619402239 30.4767679,0.137644942 28.9278381,0.137644942 L28.9278381,0.137644942 Z M28.7482029,8.85515794 L25.8740399,8.85515794 L25.8740399,1.92702919 L28.8371732,1.92702919 C29.8471974,1.92702919 30.6555558,2.2252599 31.2842789,2.84466214 C31.8909713,3.46406437 32.2044856,4.28993403 32.2044856,5.32227109 C32.2044856,7.40988605 30.7902822,8.85515794 28.7482029,8.85515794 L28.7482029,8.85515794 Z M42.6792506,14.957417 L38.5484886,14.957417 L38.5484886,1.19292283 C38.5484886,0.389994002 38.2120963,4.79616347e-14 37.5613425,4.79616347e-14 C36.8656798,4.79616347e-14 36.5284401,0.367053179 36.5284401,1.10115954 L36.5284401,15.6456417 C36.5284401,16.4723611 36.8428017,16.8844462 37.4706775,16.8844462 L42.9936122,16.8844462 C43.5545485,16.8844462 43.8468793,16.5403339 43.8468793,15.87505 C43.8468793,15.2556477 43.4647309,14.957417 42.6792506,14.957417 L42.6792506,14.957417 Z M57.2441055,4.8297587e-14 C56.6153824,4.8297587e-14 56.3018681,0.344112355 56.3018681,1.05527789 L56.3018681,11.1033587 C56.3018681,12.3642543 55.8968416,13.3515594 55.1122087,14.1086066 C54.3258811,14.8656537 53.2938261,15.2318573 52.0584105,15.2318573 C50.7789334,15.2318573 49.7460311,14.8648041 48.9834289,14.1315474 C48.1971013,13.4195322 47.8158002,12.4109856 47.8158002,11.1033587 L47.8158002,1.05527789 C47.8158002,0.344112355 47.4794079,0 46.7828979,0 C46.132144,0 45.7957517,0.344112355 45.7957517,1.05527789 L45.7957517,11.1033587 C45.7957517,12.9845062 46.3787187,14.4518693 47.5692255,15.5079968 C48.6910981,16.4944522 50.1959664,17 52.0584105,17 C53.8996712,17 55.3808141,16.4944522 56.503534,15.485056 C57.6931935,14.4068373 58.2770078,12.9615654 58.2770078,11.1042083 L58.2770078,1.05612755 C58.2770078,0.344112355 57.9397682,4.8297587e-14 57.2441055,4.8297587e-14 L57.2441055,4.8297587e-14 Z M65.9445494,6.8822471 C63.9236536,6.21696321 62.9144766,5.36815274 62.9144766,4.3587565 C62.9144766,2.79878049 64.0363492,1.78938425 65.5632483,1.78938425 C65.9445494,1.78938425 66.5283638,1.97291084 67.313844,2.33996401 C68.0993243,2.70701719 68.570443,2.89054378 68.7060168,2.89054378 C69.1771355,2.89054378 69.6482541,2.45466813 69.6482541,1.97291084 C69.6482541,1.55997601 69.4237102,1.19292283 68.9746222,0.871751299 C68.1450805,0.298230708 67.066422,9.59232693e-14 65.6979747,9.59232693e-14 C64.3956196,9.59232693e-14 63.273747,0.344112355 62.352693,1.05527789 C61.3197907,1.83526589 60.8046105,2.86760296 60.8046105,4.15228908 C60.8046105,6.05637745 61.7248172,7.40988605 63.5872612,8.21281487 C65.002312,8.76339464 66.0572451,9.15338864 66.7529078,9.4057377 C67.987476,10.0251399 68.5933211,10.8739504 68.5933211,11.97511 C68.5933211,12.8468613 68.3009902,13.6047581 67.6951452,14.2471012 C67.0884527,14.912385 66.3478812,15.2327069 65.5183395,15.2327069 C64.5083152,15.2327069 63.5872612,15.0032987 62.7348414,14.522391 C62.5331755,14.4068373 62.3077842,14.2921331 62.1061183,14.1544882 C61.8815743,14.0168433 61.6799084,13.9480208 61.5231513,13.9480208 C60.9393369,13.9480208 60.6478534,14.2691923 60.6478534,14.8885946 C60.6478534,15.6218513 61.2536985,16.1962215 62.4882667,16.5862155 C63.3864427,16.8615054 64.3066493,16.9991503 65.2497341,16.9991503 C66.8435727,16.9991503 68.1679585,16.5394842 69.2008609,15.5997601 C70.2100378,14.6591863 70.7269126,13.3965914 70.7269126,11.7915834 C70.7269126,10.3463115 70.2557939,9.24515194 69.2906784,8.46516393 C68.661108,7.93752499 67.538388,7.40988605 65.9445494,6.8822471 L65.9445494,6.8822471 Z M85.1833085,2.59231307 C83.8589227,0.871751299 82.0854489,4.79616347e-14 79.8179783,4.79616347e-14 C77.5733858,4.79616347e-14 75.7770339,0.871751299 74.4526481,2.6152539 C73.2401106,4.19817073 72.6342655,6.17108157 72.6342655,8.53398641 C72.6342655,10.8518593 73.2621413,12.8009796 74.4975569,14.4068373 C75.8439734,16.1265494 77.6174473,17 79.817131,17 C82.0396927,17 83.8131666,16.127399 85.1367051,14.4068373 C86.3712733,12.8247701 86.9999965,10.8510096 86.9999965,8.53398641 C87.0016911,6.17108157 86.3949987,4.17522991 85.1833085,2.59231307 L85.1833085,2.59231307 Z M84.5774634,10.9895042 C84.2631019,12.2503998 83.7021656,13.2377049 82.9166853,13.9718113 C82.0634181,14.7747401 81.0305158,15.1647341 79.8188256,15.1647341 C78.1351694,15.1647341 76.8336616,14.4527189 75.9354857,13.0303878 C75.1720362,11.8145242 74.7898877,10.3004298 74.7898877,8.48810476 C74.7898877,6.62989804 75.1711888,5.11580368 75.9126076,3.94582167 C76.7879055,2.54643143 78.0894133,1.85820672 79.8179783,1.85820672 C81.5465433,1.85820672 82.8480511,2.54643143 83.723349,3.94582167 C84.4639204,5.11580368 84.8460689,6.62989804 84.8460689,8.48810476 C84.8469162,9.42867853 84.7570986,10.277489 84.5774634,10.9895042 L84.5774634,10.9895042 Z" id="Shape" fill-opacity="0.86" fill="#000000"></path>
                </g>
            </g>
        </g>
    </g>
</svg>