<?xml version="1.0" encoding="UTF-8"?>
<svg width="230px" height="26px" viewBox="0 0 230 26" version="1.1" xmlns="http://www.w3.org/2000/svg" xmlns:xlink="http://www.w3.org/1999/xlink">
    <!-- Generator: Sketch 40.1 (33804) - http://www.bohemiancoding.com/sketch -->
    <title>vscale-logo-black</title>
    <desc>Created with Sketch.</desc>
    <defs></defs>
    <g id="Symbols" stroke="none" stroke-width="1" fill="none" fill-rule="evenodd">
        <g id="vscale-logo-black">
            <path d="M31.7452638,20.2420085 L36.9226518,5.81322232 L33.1315589,5.81322232 L30.1326348,14.7534114 C29.9628843,15.3192461 29.7931339,16.0548313 29.6233835,16.9318752 L29.5668,16.9318752 L29.0575487,14.7534114 L26.0586245,5.81322232 L22.2675317,5.81322232 L27.5015032,20.2420085 L31.7452638,20.2420085 L31.7452638,20.2420085 Z M36.3541479,18.459629 C37.8253183,19.8742159 39.7208647,20.5815093 42.0124955,20.5815093 C43.6534162,20.5815093 44.9831279,20.1571333 45.9733387,19.3366729 C46.9635496,18.4879208 47.4728008,17.4128347 47.4728008,16.1397065 C47.5010925,13.395408 44.8982527,12.320322 42.8329558,11.669612 C41.4466607,11.1886525 40.3149912,10.5945259 40.3149912,9.77406558 C40.3149912,8.84043821 40.9939929,8.38777045 42.3237046,8.38777045 C43.5968328,8.38777045 45.1528783,8.92531344 45.9733387,9.63260688 L47.3030504,7.11464223 C46.0582139,6.01126446 44.4455849,5.47372147 42.4368715,5.47372147 C40.8525342,5.47372147 39.5228225,5.8698058 38.4760283,6.63368268 C37.429234,7.3975596 36.9199827,8.44435388 36.9199827,9.80235732 C36.8633992,12.5183641 39.5511143,13.6783254 41.5598277,14.3290353 C42.9461228,14.8099949 44.0777923,15.4041213 44.0777923,16.2245817 C44.0777923,17.1299173 43.3422071,17.6674604 42.0690789,17.6674604 C40.4847417,17.6674604 39.1267383,17.1299173 37.966777,16.083123 L36.3541479,18.459629 L36.3541479,18.459629 Z M48.0642583,13.0276154 C48.0642583,15.1777875 48.7715517,16.9884587 50.2144303,18.4313373 C51.6573089,19.8742159 53.5528554,20.5815093 55.9010696,20.5815093 C58.1927003,20.5815093 60.484331,19.6761737 61.8423345,18.2332951 L60.4560393,15.6870387 C59.1829111,16.9035834 57.7683242,17.5260017 56.2122787,17.5260017 C54.882567,17.5260017 53.7791892,17.1016256 52.9587288,16.2245817 C52.1382685,15.3475379 51.7138924,14.2724518 51.7138924,12.9993237 C51.7138924,11.7261954 52.1099767,10.6794012 52.9304371,9.83064906 C53.7508975,8.95360518 54.7976918,8.52922911 56.0991117,8.52922911 C57.5419904,8.52922911 58.7868268,9.0384804 59.8336211,10.0852747 L61.4462501,7.62389353 C60.1165384,6.18101491 57.9663664,5.47372147 55.9010696,5.47372147 C53.5528554,5.47372147 51.6573089,6.20930665 50.2144303,7.68047701 C48.7715517,9.12335563 48.0642583,10.9057351 48.0642583,13.0276154 L48.0642583,13.0276154 L48.0642583,13.0276154 Z M62.2350903,16.2528735 C62.2350903,17.5260017 62.6877581,18.5727959 63.5930937,19.3932563 C64.526721,20.185425 65.6583905,20.5815093 66.9881022,20.5815093 C68.9119402,20.5815093 70.6377362,19.534715 71.5430719,17.9786695 L71.5996554,17.9786695 L71.5147804,19.0254638 L71.5147804,20.2420085 L74.8532054,20.2420085 L74.8532054,11.2169442 C74.8532054,7.59560179 72.618158,5.47372147 68.8553567,5.47372147 C67.8085625,5.47372147 66.7617683,5.64347188 65.714974,6.01126446 C64.6681797,6.35076531 63.8194276,6.77514138 63.1970093,7.25610094 L64.526721,9.83064906 C65.8847244,8.8970217 67.2144362,8.44435388 68.5441478,8.44435388 C70.3548187,8.44435388 71.2601545,9.29310603 71.2601545,10.9906103 L71.2601545,11.1886525 L70.6377362,11.1886525 C68.7421897,11.1886525 67.1012692,11.4149863 65.2623062,12.093988 C63.451635,12.744698 62.2350903,14.2158683 62.2350903,16.2528735 L62.2350903,16.2528735 L62.2350903,16.2528735 Z M65.7998492,15.9416644 C65.7998492,14.4139105 67.4124781,13.6500336 70.6660281,13.6500336 L71.2884464,13.6500336 L71.2884464,14.0461179 C71.2884464,14.9797453 70.9772371,15.8567892 70.3548187,16.6489578 C69.7324009,17.4411264 68.9402321,17.8372108 67.9783129,17.8372108 C66.6203096,17.8372108 65.7998492,16.9601669 65.7998492,15.9416644 L65.7998492,15.9416644 L65.7998492,15.9416644 Z M76.23815,15.7436222 C76.23815,17.6957521 76.8039848,19.0537555 77.7376125,19.647882 C78.6712397,20.2137167 79.519992,20.3834671 80.6799531,20.3834671 C80.9345786,20.3834671 81.3023714,20.3551754 81.8116223,20.298592 L81.8116223,17.1582091 C81.6701638,17.1865008 81.5004134,17.1865008 81.2740795,17.1865008 C80.2555768,17.1865008 79.8029089,16.7055413 79.8029089,15.2060792 L79.8029089,0.154874794 L76.23815,0.154874794 L76.23815,15.7436222 L76.23815,15.7436222 Z M82.0352875,13.0276154 C82.0352875,15.1494957 82.7425808,16.9318752 84.1854594,18.4030455 C85.6283379,19.8459242 87.4955929,20.5815093 89.8155152,20.5815093 C91.9373955,20.5815093 94.1724429,19.7893407 95.6153214,18.5162125 L94.2007344,15.9416644 C92.8710228,16.9884587 91.5130192,17.5260017 90.0701406,17.5260017 C87.7785103,17.5260017 85.9678388,16.1114148 85.7415049,13.7066171 L95.6719049,13.7066171 C95.7567799,13.1124906 95.7850719,12.6315311 95.7850719,12.320322 C95.7850719,10.3399003 95.2192371,8.69897955 94.0875674,7.42585134 C92.9558982,6.12443143 91.3998527,5.47372147 89.3911393,5.47372147 C87.2126754,5.47372147 85.4585875,6.18101491 84.0722924,7.59560179 C82.7142888,8.98189692 82.0352875,10.7925681 82.0352875,13.0276154 L82.0352875,13.0276154 L82.0352875,13.0276154 Z M85.8263804,11.2452359 C86.1658808,9.40627299 87.4955929,8.18972826 89.3062638,8.18972826 C90.9754763,8.18972826 92.1637295,9.34968951 92.192021,11.2452359 L85.8263804,11.2452359 L85.8263804,11.2452359 Z M16.5951906,15.8401485 L16.5951908,20.2495189 L10.1,23.9995191 L0.140707856,18.2495191 L0.140707856,6.74951905 L6.63423234,3.00048095 L9.76089194,4.80505485 L3.60480976,8.70640869 L3.60480976,16.2064087 L10.1000003,19.9564087 L16.5951906,15.8401485 L16.5951906,15.8401485 Z" id="vscale" fill="#424951"></path>
            <polygon id="vector" fill="#26BCF1" points="20.0592921 18.25 20.0592921 6.75 10.1 1 6.63423234 3.00096189 16.5951905 8.75 16.5951905 12.823596 16.5951908 20.2564087"></polygon>
            <path d="M97.036,12.86 C97.036,10.7693229 97.7499929,9.0006739 99.178,7.554 C100.606007,6.1073261 102.477322,5.384 104.792,5.384 C105.818672,5.384 106.826662,5.56133156 107.816,5.916 C108.805338,6.27066844 109.626663,6.80266312 110.28,7.512 L108.684,9.948 C107.657328,8.9213282 106.425341,8.408 104.988,8.408 C103.699994,8.408 102.654671,8.83266242 101.852,9.682 C101.049329,10.5313376 100.648,11.5813271 100.648,12.832 C100.648,14.0826729 101.058663,15.1419957 101.88,16.01 C102.701337,16.8780043 103.77466,17.312 105.1,17.312 C106.649341,17.312 108.049327,16.7053394 109.3,15.492 L110.672,18.012 C109.999997,18.7213369 109.136672,19.2859979 108.082,19.706 C107.027328,20.1260021 105.930672,20.336 104.792,20.336 C102.477322,20.336 100.606007,19.6220071 99.178,18.194 C97.7499929,16.7659929 97.036,14.9880106 97.036,12.86 L97.036,12.86 Z M109.862,12.86 C109.862,10.6946558 110.617992,8.90734038 112.13,7.498 C113.642008,6.08865962 115.489989,5.384 117.674,5.384 C119.876678,5.384 121.738659,6.08865962 123.26,7.498 C124.781341,8.90734038 125.542,10.6946558 125.542,12.86 C125.542,15.0253442 124.786008,16.8126596 123.274,18.222 C121.761992,19.6313404 119.904678,20.336 117.702,20.336 C115.499322,20.336 113.642008,19.6313404 112.13,18.222 C110.617992,16.8126596 109.862,15.0253442 109.862,12.86 L109.862,12.86 Z M113.474,12.86 C113.474,14.1666732 113.879996,15.2353292 114.692,16.066 C115.504004,16.8966708 116.507327,17.312 117.702,17.312 C118.896673,17.312 119.904663,16.8966708 120.726,16.066 C121.547337,15.2353292 121.958,14.1666732 121.958,12.86 C121.958,11.5719936 121.542671,10.5080042 120.712,9.668 C119.881329,8.8279958 118.878006,8.408 117.702,8.408 C116.525994,8.408 115.527337,8.8279958 114.706,9.668 C113.884663,10.5080042 113.474,11.5719936 113.474,12.86 L113.474,12.86 Z M126.272,20 L126.272,5.72 L129.688,5.72 L129.688,7.4 L129.632,8.408 L129.688,8.408 C130.061335,7.62399608 130.672662,6.92400308 131.522,6.308 C132.371338,5.69199692 133.318661,5.384 134.364,5.384 C136.529344,5.384 137.910664,6.3639902 138.508,8.324 L138.564,8.324 C138.993335,7.52132932 139.646662,6.83066956 140.524,6.252 C141.401338,5.67333044 142.371995,5.384 143.436,5.384 C146.553349,5.384 148.112,7.19464856 148.112,10.816 L148.112,20 L144.584,20 L144.584,11.488 C144.584,10.5733288 144.444001,9.86866914 144.164,9.374 C143.883999,8.87933086 143.37067,8.632 142.624,8.632 C141.466661,8.632 140.57067,9.1219951 139.936,10.102 C139.30133,11.0820049 138.984,12.2439933 138.984,13.588 L138.984,20 L135.428,20 L135.428,11.488 C135.428,10.5733288 135.297335,9.86866914 135.036,9.374 C134.774665,8.87933086 134.261337,8.632 133.496,8.632 C132.338661,8.632 131.438003,9.13132834 130.794,10.13 C130.149997,11.1286717 129.828,12.2813268 129.828,13.588 L129.828,20 L126.272,20 Z M149.398,20 L149.398,5.72 L152.814,5.72 L152.814,7.4 L152.758,8.408 L152.814,8.408 C153.187335,7.62399608 153.798662,6.92400308 154.648,6.308 C155.497338,5.69199692 156.444661,5.384 157.49,5.384 C159.655344,5.384 161.036664,6.3639902 161.634,8.324 L161.69,8.324 C162.119335,7.52132932 162.772662,6.83066956 163.65,6.252 C164.527338,5.67333044 165.497995,5.384 166.562,5.384 C169.679349,5.384 171.238,7.19464856 171.238,10.816 L171.238,20 L167.71,20 L167.71,11.488 C167.71,10.5733288 167.570001,9.86866914 167.29,9.374 C167.009999,8.87933086 166.49667,8.632 165.75,8.632 C164.592661,8.632 163.69667,9.1219951 163.062,10.102 C162.42733,11.0820049 162.11,12.2439933 162.11,13.588 L162.11,20 L158.554,20 L158.554,11.488 C158.554,10.5733288 158.423335,9.86866914 158.162,9.374 C157.900665,8.87933086 157.387337,8.632 156.622,8.632 C155.464661,8.632 154.564003,9.13132834 153.92,10.13 C153.275997,11.1286717 152.954,12.2813268 152.954,13.588 L152.954,20 L149.398,20 Z M172.584,14.904 L172.584,5.72 L176.14,5.72 L176.14,14.176 C176.14,15.1280048 176.303332,15.8513309 176.63,16.346 C176.956668,16.8406691 177.530662,17.088 178.352,17.088 C179.584006,17.088 180.55933,16.621338 181.278,15.688 C181.99667,14.754662 182.356,13.6160067 182.356,12.272 L182.356,5.72 L185.884,5.72 L185.884,20 L182.468,20 L182.468,18.32 L182.552,17.34 L182.496,17.34 C182.122665,18.1426707 181.488004,18.8426637 180.592,19.44 C179.695995,20.0373363 178.678672,20.336 177.54,20.336 C174.235983,20.336 172.584,18.5253514 172.584,14.904 L172.584,14.904 Z M187.51,20 L187.51,5.72 L190.926,5.72 L190.926,7.4 L190.87,8.408 L190.926,8.408 C191.299335,7.64266284 191.915329,6.94733646 192.774,6.322 C193.632671,5.69666354 194.705993,5.384 195.994,5.384 C199.316683,5.384 200.978,7.19464856 200.978,10.816 L200.978,20 L197.422,20 L197.422,11.544 C197.422,10.5919952 197.258668,9.86866914 196.932,9.374 C196.605332,8.87933086 196.022004,8.632 195.182,8.632 C193.949994,8.632 192.956004,9.07999552 192.2,9.976 C191.443996,10.8720045 191.066,11.98266 191.066,13.308 L191.066,20 L187.51,20 Z M201.736,3.284 L201.736,0.12 L205.292,0.12 L205.292,3.284 L201.736,3.284 Z M201.736,20 L201.736,5.72 L205.292,5.72 L205.292,20 L201.736,20 Z M207.89,14.764 L207.89,8.744 L206.042,8.744 L206.042,5.916 L207.974,5.916 L207.974,1.828 L211.446,1.828 L211.446,5.916 L214.694,5.916 L214.694,8.744 L211.446,8.744 L211.446,14.316 C211.446,15.3426718 211.739997,16.0473314 212.328,16.43 C212.916003,16.8126686 213.564663,17.004 214.274,17.004 C214.516668,17.004 214.731332,16.9853335 214.918,16.948 L214.918,20.056 C214.357997,20.1120003 213.994001,20.14 213.826,20.14 C213.340664,20.14 212.874002,20.1073337 212.426,20.042 C211.977998,19.9766663 211.464669,19.8320011 210.886,19.608 C210.30733,19.3839989 209.808002,19.0900018 209.388,18.726 C208.967998,18.3619982 208.613335,17.8393367 208.324,17.158 C208.034665,16.4766633 207.89,15.6786712 207.89,14.764 L207.89,14.764 Z M216.66,22.296 C217.182669,22.688002 217.705331,22.884 218.228,22.884 C219.366672,22.884 220.197331,22.2680062 220.72,21.036 L221.252,19.776 L215.232,5.72 L219.236,5.72 L222.232,13.952 L222.764,15.884 L222.82,15.884 C222.988001,15.1373296 223.146666,14.5120025 223.296,14.008 L226.096,5.72 L229.96,5.72 L223.604,22.156 C223.137331,23.4066729 222.442005,24.3399969 221.518,24.956 C220.593995,25.5720031 219.572005,25.88 218.452,25.88 C217.947997,25.88 217.448669,25.8053341 216.954,25.656 C216.459331,25.5066659 216.090668,25.3573341 215.848,25.208 L215.484,24.956 L216.66,22.296 Z" id="community" fill="#26BCF1"></path>
        </g>
    </g>
</svg>